<svg width="1536" height="100" viewBox="0 0 1536 100" fill="none" xmlns="http://www.w3.org/2000/svg">
<g clip-path="url(#clip0_129_148)">
<path opacity="0.33" d="M726.528 67.3011C413.338 155.603 322.406 33.3006 234.547 67.3011C101.376 119.102 0 59.701 0 59.701V0H1536V59.701C1536 59.701 1440.61 85.8014 1390.23 89.0015C1339.85 92.3016 1293.77 76.7013 1273.8 66.9011C1238.02 49.6008 1144.78 8.70015 1067.37 4.70008C989.952 0.700012 756.326 59.001 726.528 67.3011Z" fill="#FFF3DF"/>
<path opacity="0.66" d="M1127.42 67.3C1057.54 67.3 1008.84 44.1 929.126 28.2C885.197 19.5 698.266 18.1 538.982 67.3C379.699 116.5 398.131 32.9 309.811 67.3C177.715 118.3 0 39.8 0 39.8V0H1536V36.5C1536 36.5 1492.68 18 1394.53 18C1244.47 18.1 1191.48 67.3 1127.42 67.3Z" fill="#FFF3DF"/>
<path d="M1176.73 28.9C869.53 -28.6 768.154 94.4 569.856 48.4C371.712 1.8 371.712 5.4 283.853 20.6C196.608 35.8 203.213 44.9 138.086 52.5C43.9296 63.7 0 0 0 0H1536C1536 0 1520.79 40.9 1407.59 48.1C1294.39 55.3 1274.27 47 1176.73 28.9Z" fill="#FFF3DF"/>
</g>
<defs>
<clipPath id="clip0_129_148">
<rect width="1536" height="100" fill="#FFF3DF"/>
</clipPath>
</defs>
</svg>
