<svg width="1536" height="100" viewBox="0 0 1536 100" fill="none" xmlns="http://www.w3.org/2000/svg">
<g clip-path="url(#clip0_129_153)">
<path opacity="0.33" d="M726.528 32.6989C413.338 -55.6026 322.406 66.6994 234.547 32.6989C101.376 -19.102 0 40.299 0 40.299V100H1536V40.299C1536 40.299 1440.61 14.1986 1390.23 10.9985C1339.85 7.69845 1293.77 23.2987 1273.8 33.0989C1238.02 50.3992 1144.78 91.2999 1067.37 95.2999C989.952 99.3 756.326 40.999 726.528 32.6989Z" fill="white"/>
<path opacity="0.66" d="M1127.42 32.7C1057.54 32.7 1008.84 55.9 929.126 71.8C885.197 80.5 698.266 81.9 538.982 32.7C379.699 -16.5 398.131 67.1 309.811 32.7C177.715 -18.3 0 60.2 0 60.2V100H1536V63.5C1536 63.5 1492.68 82 1394.53 82C1244.47 81.9 1191.48 32.7 1127.42 32.7Z" fill="white"/>
<path d="M1176.73 71.1C869.53 128.6 768.154 5.59999 569.856 51.6C371.712 98.2 371.712 94.6 283.853 79.4C196.608 64.2 203.213 55.1 138.086 47.5C43.9296 36.3 0 100 0 100H1536C1536 100 1520.79 59.1 1407.59 51.9C1294.39 44.7 1274.27 53 1176.73 71.1Z" fill="white"/>
</g>
<defs>
<clipPath id="clip0_129_153">
<rect width="1536" height="100" fill="white" transform="matrix(1 0 0 -1 0 100)"/>
</clipPath>
</defs>
</svg>
