<svg width="1852" height="157" viewBox="0 0 1852 157" fill="none" xmlns="http://www.w3.org/2000/svg">
<path d="M1852 102.219C1852 102.219 1804.31 77.9352 1760.54 76.241C1716.12 74.5468 1678.23 76.241 1624.01 84.7122C1550.19 96.0072 1407.78 141.752 1332 116.903C1256.22 92.054 1252.96 90.9245 1214.42 75.1115C1171.3 57.0396 1083.76 20.8957 975.321 22.5899C859.694 24.2842 649.996 116.338 563.766 111.82C554.62 111.255 520.65 107.302 495.173 100.525C470.349 93.7482 433.767 79.0648 384.119 73.982C363.214 71.723 329.898 67.7698 291.355 68.8993C281.556 69.464 250.2 71.1583 212.964 77.9353C175.728 84.7122 141.105 95.4424 109.748 98.8309C42.4621 105.043 0 96.0072 0 96.0072V157H1852V102.219ZM1703.71 93.1835C1699.14 98.8309 1690.64 95.4424 1675.62 95.4424C1660.59 95.4424 1635.77 102.219 1637.73 101.655C1639.69 101.09 1657.98 93.1835 1676.93 90.9245C1696.52 88.1007 1707.63 87.536 1703.71 93.1835ZM1583.51 108.432C1583.51 108.432 1567.83 109.561 1546.93 113.514C1526.02 118.032 1479.64 129.327 1448.28 133.281C1394.72 139.493 1345.07 133.281 1349.64 132.716C1354.87 132.151 1412.35 136.104 1464.62 126.504C1486.17 122.55 1525.37 114.079 1545.62 111.255C1567.18 107.867 1583.51 108.432 1583.51 108.432ZM1209.84 108.996C1220.95 112.95 1122.96 82.4532 1088.99 74.5468C1075.27 71.1583 1048.49 65.5108 1023.66 63.2518C998.186 60.9928 965.522 60.9928 966.176 60.4281C966.176 59.2986 1004.06 55.9101 1039.34 60.4281C1074.62 64.946 1073.31 66.6403 1088.99 69.464C1113.81 73.982 1198.74 105.043 1209.84 108.996ZM1300.65 118.032C1301.95 118.032 1295.42 120.291 1269.29 111.82C1243.16 103.349 1225.52 92.054 1224.21 90.9245C1222.91 90.3597 1247.08 101.09 1267.33 107.867C1286.93 114.644 1299.99 118.032 1300.65 118.032ZM1848.73 123.115C1848.08 122.55 1836.32 116.903 1817.38 108.996C1798.43 101.09 1772.3 93.1835 1773.61 93.7482C1774.92 93.7482 1796.47 97.1367 1821.95 107.867C1847.43 118.597 1849.39 123.68 1848.73 123.115ZM204.471 91.4892C205.125 92.6187 192.059 92.6187 175.074 98.2662C158.09 103.914 139.798 107.302 124.12 109.561C97.9894 114.079 47.6882 108.996 50.3012 108.432C52.261 107.867 103.869 110.126 131.959 104.478C146.331 101.655 147.637 101.655 169.195 95.4424C190.753 89.2302 203.818 89.795 204.471 91.4892ZM476.882 105.043C479.495 105.608 499.746 114.079 531.756 119.727C563.766 125.939 589.896 122.55 589.896 124.245C589.896 125.939 583.364 129.327 549.394 125.939C515.424 122.55 474.269 104.478 476.882 105.043ZM467.736 119.162C469.043 118.597 489.947 126.504 504.972 128.763C519.997 130.457 517.384 131.586 517.384 132.151C517.384 132.716 510.198 133.281 499.746 131.022C488.641 128.198 466.43 119.727 467.736 119.162ZM611.454 132.151C612.107 131.022 634.318 127.633 648.037 121.986C661.755 116.338 659.795 118.597 660.449 119.162C661.102 119.727 655.223 123.68 644.77 126.504C634.318 129.892 610.801 133.281 611.454 132.151ZM427.234 94.313C426.581 92.6187 429.194 91.4892 439.646 95.4424C450.098 99.3957 456.631 102.784 454.018 102.219C451.405 101.655 448.138 99.9604 437.686 97.7014C426.581 95.4424 427.887 96.0072 427.234 94.313ZM225.376 86.9712C224.069 86.9712 239.094 82.4532 246.933 81.8885C254.772 81.3237 259.999 81.3237 259.999 83.018C259.999 84.7122 259.345 85.8417 249.546 85.277C239.094 84.7122 226.682 86.9712 225.376 86.9712ZM994.266 37.8381C993.613 37.2734 978.588 39.5324 945.271 39.5324C912.608 39.5324 856.428 53.0863 832.91 59.2986C809.393 65.5108 898.236 37.2734 940.698 36.1439C983.161 35.0144 994.919 38.4029 994.266 37.8381Z" fill="#FFF3DF"/>
<path d="M1761.2 55.3453C1760.54 55.9101 1731.15 53.6511 1714.16 55.3453C1666.47 59.2986 1603.11 73.4173 1605.72 71.723C1608.33 70.0288 1695.22 54.2158 1716.77 53.0864C1748.78 50.8274 1761.85 55.3453 1761.2 55.3453Z" fill="#FFF3DF"/>
<path d="M1485.52 101.655C1484.21 102.219 1456.12 107.302 1423.46 108.432C1390.8 109.561 1340.5 105.043 1343.11 105.608C1345.07 106.173 1381.65 115.773 1429.99 112.385C1478.33 108.996 1486.83 101.09 1485.52 101.655Z" fill="#FFF3DF"/>
<path d="M1335.92 81.3237C1335.27 81.8885 1348.99 86.9712 1356.83 87.536C1364.67 88.1007 1369.89 87.536 1369.89 85.8417C1369.89 84.1475 1369.24 83.018 1359.44 83.5827C1348.33 84.1475 1336.58 80.759 1335.92 81.3237Z" fill="#FFF3DF"/>
<path d="M1313.06 97.1367C1313.06 97.7015 1284.31 90.3597 1271.9 84.7123C1259.49 79.6295 1231.4 67.2051 1232.05 67.2051C1232.71 66.6403 1259.49 76.241 1273.21 81.8885C1286.93 87.536 1313.06 96.572 1313.06 97.1367Z" fill="#FFF3DF"/>
<path d="M1009.29 6.21221C1008.64 6.77696 979.241 4.51797 962.256 6.21221C914.568 10.1654 851.201 24.2842 853.814 22.5899C856.428 20.8957 943.311 5.08272 964.869 3.95322C996.879 1.69423 1009.94 5.64746 1009.29 6.21221Z" fill="#FFF3DF"/>
<path d="M273.717 48.0036C273.717 48.0036 281.556 49.6978 292.662 48.5683C303.767 47.4388 330.551 43.4856 346.229 44.6151C373.666 46.8741 394.571 59.8633 391.958 59.2985C389.345 59.2985 363.867 46.8741 335.777 48.5683C324.018 49.1331 302.461 51.3921 292.008 50.8273C281.556 50.2626 273.717 48.0036 273.717 48.0036Z" fill="#FFF3DF"/>
<path d="M493.213 85.8417C494.52 85.277 506.279 90.3597 521.304 92.0539C536.329 93.1834 535.022 93.7482 535.022 94.8777C535.022 95.4424 523.263 97.1367 512.811 94.8777C502.359 92.0539 491.907 86.4065 493.213 85.8417Z" fill="#FFF3DF"/>
<path d="M101.909 82.4532C101.909 83.018 129.999 82.4532 145.678 79.6295C161.356 76.8057 178.341 68.8993 178.341 68.3345C178.341 67.7698 160.703 72.8525 145.024 76.241C129.999 79.6295 102.562 81.8885 101.909 82.4532Z" fill="#FFF3DF"/>
</svg>
