<svg width="1852" height="157" viewBox="0 0 1852 157" fill="none" xmlns="http://www.w3.org/2000/svg">
<path d="M1852 54.7806C1852 54.7806 1804.31 79.0648 1760.54 80.759C1716.12 82.4532 1678.23 80.759 1624.01 72.2878C1550.19 60.9928 1407.78 15.2482 1332 40.0971C1256.22 64.946 1252.96 66.0755 1214.42 81.8885C1171.3 99.9604 1083.76 136.104 975.321 134.41C859.694 132.716 649.997 40.6619 563.766 45.1799C554.62 45.7446 520.65 49.6978 495.173 56.4748C470.349 63.2518 433.767 77.9352 384.119 83.018C363.214 85.277 329.898 89.2302 291.355 88.1007C281.556 87.536 250.2 85.8417 212.964 79.0647C175.728 72.2878 141.105 61.5576 109.748 58.1691C42.4621 51.9568 0 60.9928 0 60.9928V0H1852V54.7806ZM1703.71 63.8165C1699.14 58.1691 1690.64 61.5576 1675.62 61.5576C1660.59 61.5576 1635.77 54.7806 1637.73 55.3453C1639.69 55.9101 1657.98 63.8165 1676.93 66.0755C1696.52 68.8993 1707.63 69.464 1703.71 63.8165ZM1583.51 48.5683C1583.51 48.5683 1567.83 47.4388 1546.93 43.4856C1526.02 38.9676 1479.64 27.6727 1448.28 23.7194C1394.72 17.5072 1345.07 23.7194 1349.64 24.2842C1354.87 24.8489 1412.35 20.8957 1464.62 30.4964C1486.17 34.4496 1525.37 42.9209 1545.62 45.7446C1567.18 49.1331 1583.51 48.5683 1583.51 48.5683ZM1209.84 48.0036C1220.95 44.0504 1122.96 74.5468 1088.99 82.4532C1075.27 85.8417 1048.49 91.4892 1023.66 93.7482C998.186 96.0072 965.522 96.0072 966.176 96.5719C966.176 97.7014 1004.07 101.09 1039.34 96.5719C1074.62 92.054 1073.31 90.3597 1088.99 87.536C1113.81 83.018 1198.74 51.9568 1209.84 48.0036ZM1300.65 38.9676C1301.95 38.9676 1295.42 36.7086 1269.29 45.1799C1243.16 53.6511 1225.52 64.946 1224.21 66.0755C1222.91 66.6403 1247.08 55.9101 1267.33 49.1331C1286.93 42.3561 1299.99 38.9676 1300.65 38.9676ZM1848.73 33.8849C1848.08 34.4496 1836.32 40.0971 1817.38 48.0036C1798.43 55.9101 1772.3 63.8165 1773.61 63.2518C1774.92 63.2518 1796.47 59.8633 1821.95 49.1331C1847.43 38.4029 1849.39 33.3201 1848.73 33.8849ZM204.471 65.5108C205.125 64.3813 192.059 64.3813 175.074 58.7338C158.09 53.0863 139.798 49.6978 124.12 47.4388C97.9894 42.9209 47.6882 48.0036 50.3012 48.5683C52.261 49.1331 103.869 46.8741 131.959 52.5216C146.331 55.3453 147.637 55.3453 169.195 61.5576C190.753 67.7698 203.818 67.205 204.471 65.5108ZM476.882 51.9568C479.495 51.3921 499.746 42.9209 531.756 37.2734C563.766 31.0611 589.896 34.4496 589.896 32.7554C589.896 31.0612 583.364 27.6727 549.394 31.0611C515.424 34.4496 474.269 52.5216 476.882 51.9568ZM467.736 37.8381C469.043 38.4029 489.947 30.4964 504.972 28.2374C519.997 26.5432 517.384 25.4137 517.384 24.8489C517.384 24.2842 510.198 23.7194 499.746 25.9784C488.641 28.8022 466.43 37.2734 467.736 37.8381ZM611.454 24.8489C612.107 25.9784 634.318 29.3669 648.037 35.0144C661.755 40.6619 659.795 38.4029 660.449 37.8381C661.102 37.2734 655.223 33.3201 644.77 30.4964C634.318 27.1079 610.801 23.7194 611.454 24.8489ZM427.234 62.687C426.581 64.3813 429.194 65.5108 439.646 61.5576C450.098 57.6043 456.631 54.2158 454.018 54.7806C451.405 55.3453 448.138 57.0396 437.686 59.2986C426.581 61.5576 427.887 60.9928 427.234 62.687ZM225.376 70.0288C224.069 70.0288 239.094 74.5468 246.933 75.1115C254.772 75.6763 259.999 75.6763 259.999 73.982C259.999 72.2878 259.345 71.1583 249.546 71.723C239.094 72.2878 226.682 70.0288 225.376 70.0288ZM994.266 119.162C993.613 119.727 978.588 117.468 945.271 117.468C912.608 117.468 856.428 103.914 832.91 97.7014C809.393 91.4892 898.236 119.727 940.698 120.856C983.161 121.986 994.919 118.597 994.266 119.162Z" fill="white"/>
<path d="M1761.2 101.655C1760.54 101.09 1731.15 103.349 1714.16 101.655C1666.47 97.7015 1603.11 83.5828 1605.72 85.277C1608.33 86.9713 1695.22 102.784 1716.77 103.914C1748.78 106.173 1761.85 101.655 1761.2 101.655Z" fill="white"/>
<path d="M1485.52 55.3453C1484.21 54.7806 1456.12 49.6978 1423.46 48.5683C1390.8 47.4388 1340.5 51.9568 1343.11 51.3921C1345.07 50.8273 1381.65 41.2266 1429.99 44.6151C1478.33 48.0036 1486.83 55.9101 1485.52 55.3453Z" fill="white"/>
<path d="M1335.92 75.6762C1335.27 75.1115 1348.99 70.0287 1356.83 69.464C1364.67 68.8992 1369.89 69.464 1369.89 71.1582C1369.89 72.8525 1369.24 73.982 1359.44 73.4172C1348.33 72.8525 1336.58 76.241 1335.92 75.6762Z" fill="white"/>
<path d="M1313.06 59.8633C1313.06 59.2986 1284.31 66.6403 1271.9 72.2878C1259.49 77.3705 1231.4 89.795 1232.05 89.795C1232.71 90.3597 1259.49 80.759 1273.21 75.1115C1286.93 69.4641 1313.06 60.4281 1313.06 59.8633Z" fill="white"/>
<path d="M1009.29 150.788C1008.64 150.223 979.241 152.482 962.256 150.788C914.568 146.835 851.201 132.716 853.814 134.41C856.428 136.104 943.311 151.917 964.869 153.047C996.879 155.306 1009.94 151.353 1009.29 150.788Z" fill="white"/>
<path d="M273.717 108.996C273.717 108.996 281.556 107.302 292.662 108.432C303.767 109.561 330.551 113.514 346.229 112.385C373.666 110.126 394.571 97.1367 391.958 97.7015C389.345 97.7015 363.867 110.126 335.777 108.432C324.018 107.867 302.461 105.608 292.008 106.173C281.556 106.737 273.717 108.996 273.717 108.996Z" fill="white"/>
<path d="M493.213 71.1582C494.52 71.723 506.279 66.6402 521.304 64.946C536.329 63.8165 535.022 63.2517 535.022 62.1222C535.022 61.5575 523.263 59.8633 512.811 62.1222C502.359 64.946 491.907 70.5935 493.213 71.1582Z" fill="white"/>
<path d="M101.909 74.5468C101.909 73.982 129.999 74.5468 145.678 77.3705C161.356 80.1943 178.341 88.1007 178.341 88.6655C178.341 89.2302 160.703 84.1475 145.024 80.759C129.999 77.3705 102.562 75.1115 101.909 74.5468Z" fill="white"/>
</svg>
