<svg width="158" height="126" viewBox="0 0 158 126" fill="none" xmlns="http://www.w3.org/2000/svg">
<path d="M84.02 47.52L79.96 54.552C79.55 55.261 78.794 55.698 77.974 55.698H50.218C49.399 55.698 48.642 56.135 48.233 56.844L45.374 61.795C44.964 62.504 44.964 63.378 45.374 64.088L48.233 69.039C48.642 69.748 49.399 70.185 50.218 70.185H77.976C78.794 70.185 79.55 70.621 79.96 71.329L94.689 96.773C95.099 97.481 95.855 97.917 96.673 97.917H102.392C103.211 97.917 103.968 97.48 104.378 96.771L107.236 91.821C107.646 91.111 107.645 90.236 107.235 89.526L92.509 64.088C92.098 63.378 92.098 62.503 92.508 61.793L96.822 54.321C97.704 52.793 99.91 52.793 100.793 54.321L104.622 60.952C105.505 62.48 107.71 62.48 108.593 60.952L111.929 55.174C112.339 54.465 112.339 53.591 111.929 52.881L106.847 44.08L105.453 41.665C105.043 40.956 105.043 40.082 105.453 39.372L106.733 37.155C107.615 35.627 106.512 33.716 104.747 33.716H91.989H88.895H62.909C62.09 33.716 61.333 34.153 60.923 34.862L57.587 40.64C56.705 42.168 57.808 44.079 59.572 44.079H82.034C83.799 44.081 84.902 45.992 84.02 47.52Z" fill="url(#paint0_linear_3_92)"/>
<path d="M131.019 19.399C124.102 7.39599 111.303 0 97.452 0H72.66H50.926C48.584 0 46.419 1.25 45.248 3.278L23.5611 40.841L13.034 59.075C11.653 61.468 11.653 64.415 13.034 66.808L17.636 74.779C18.52 76.31 20.103 77.305 21.866 77.439L35.3631 78.459C36.3291 78.532 36.4661 79.894 35.5331 80.158L22.813 83.747L22.842 83.797L1.34204 89.666C-0.705959 90.225 -0.301955 93.242 1.82104 93.242H18.827H28.295H45.907H50.662C52.063 93.242 52.9391 91.726 52.2381 90.512L47.159 81.714L40.5031 70.186L37.444 64.888C36.749 63.684 36.749 62.2 37.444 60.996L40.5031 55.698L58.008 25.379C59.179 23.35 61.3431 22.101 63.6861 22.101H129.427C130.812 22.101 131.711 20.6 131.019 19.399Z" fill="url(#paint1_linear_3_92)"/>
<path d="M133.042 44.507C132.016 44.417 131.899 42.962 132.898 42.71L156.144 36.885C157.984 36.427 157.652 33.718 155.756 33.718H118.301C116.286 33.718 115.026 35.899 116.034 37.645L129.884 61.634C130.352 62.444 130.352 63.442 129.884 64.252L111.242 96.54L108.569 101.17C107.635 102.787 105.909 103.784 104.042 103.784H98.696H59.901H38.916C36.901 103.784 35.641 105.965 36.649 107.711L44.509 121.325C46.138 124.146 49.148 125.884 52.406 125.884H72.66H94.3H96.991C111.117 125.884 124.17 118.348 131.234 106.114L132.58 103.783L144.746 82.712C151.048 71.797 151.723 58.624 146.779 47.222C146.361 46.258 145.456 45.594 144.41 45.502L133.042 44.507Z" fill="url(#paint2_linear_3_92)"/>
<defs>
<linearGradient id="paint0_linear_3_92" x1="106.523" y1="42.5502" x2="62.7749" y2="85.1906" gradientUnits="userSpaceOnUse">
<stop stop-color="#FF8600"/>
<stop offset="1" stop-color="#ED3B09"/>
</linearGradient>
<linearGradient id="paint1_linear_3_92" x1="8.24414" y1="96.5368" x2="87.8581" y2="12.4247" gradientUnits="userSpaceOnUse">
<stop stop-color="#FF8600"/>
<stop offset="1" stop-color="#FFD100"/>
</linearGradient>
<linearGradient id="paint2_linear_3_92" x1="53.063" y1="138.959" x2="132.677" y2="54.8467" gradientUnits="userSpaceOnUse">
<stop stop-color="#FF8600"/>
<stop offset="1" stop-color="#FFD100"/>
</linearGradient>
</defs>
</svg>
